<svg aria-hidden="true" style="width:0;height:0;position:absolute;overflow:hidden" xmlns="http://www.w3.org/2000/svg"><defs><symbol id="to-bottom" viewBox="0 0 32 32"><path d="M5.149 8.25c.431 0 .861.179 1.167.529l9.683 11.067 9.683-11.067a1.55 1.55 0 1 1 2.333 2.041l-10.85 12.4a1.551 1.551 0 0 1-2.332 0l-10.85-12.4a1.549 1.549 0 0 1 1.166-2.571z"/></symbol><symbol id="to-top" viewBox="0 0 32 32"><path d="M26.851 23.75c-.431 0-.861-.179-1.167-.529l-9.683-11.067-9.683 11.067a1.55 1.55 0 1 1-2.333-2.041l10.85-12.4a1.551 1.551 0 0 1 2.332 0l10.85 12.4a1.549 1.549 0 0 1-1.166 2.571z"/></symbol></defs></svg>