<svg aria-hidden="true" style="position: absolute; width: 0; height: 0; overflow: hidden;" version="1.1" xmlns="http://www.w3.org/2000/svg" xmlns:xlink="http://www.w3.org/1999/xlink">
<defs>
<symbol id="to-bottom" viewBox="0 0 32 32">
<path d="M5.149 8.25c0.431 0 0.861 0.179 1.167 0.529l9.683 11.067 9.683-11.067c0.564-0.644 1.543-0.71 2.187-0.146s0.709 1.543 0.146 2.187l-10.85 12.4c-0.294 0.336-0.72 0.529-1.166 0.529s-0.872-0.193-1.166-0.529l-10.85-12.4c-0.564-0.644-0.499-1.623 0.146-2.187 0.294-0.257 0.658-0.384 1.020-0.384z"></path>
</symbol>
<symbol id="to-top" viewBox="0 0 32 32">
<path d="M26.851 23.75c-0.431 0-0.861-0.179-1.167-0.529l-9.683-11.067-9.683 11.067c-0.564 0.644-1.543 0.71-2.187 0.146s-0.709-1.543-0.146-2.187l10.85-12.4c0.294-0.336 0.72-0.529 1.166-0.529s0.872 0.193 1.166 0.529l10.85 12.4c0.564 0.644 0.499 1.623-0.146 2.187-0.294 0.257-0.658 0.384-1.020 0.384z"></path>
</symbol>
</defs>
</svg>
